<?xml version="1.0" encoding="UTF-8"?><svg id="_?덉씠??2" xmlns="http://www.w3.org/2000/svg" xmlns:xlink="http://www.w3.org/1999/xlink" viewBox="0 0 92.92 85.99"><defs><linearGradient id="_臾댁젣_洹몃씪?붿뼵??54" x1="4.47" y1="49.78" x2="54.35" y2="49.78" gradientTransform="translate(58.82) rotate(-180) scale(1 -1)" gradientUnits="userSpaceOnUse"><stop offset="0" stop-color="#a7a4a4"/><stop offset="1" stop-color="#9d9e9f"/></linearGradient><linearGradient id="_臾댁젣_洹몃씪?붿뼵??64" x1="68.74" y1="-1.56" x2="68.79" y2="-1.53" gradientTransform="translate(-5.57 33.87) rotate(-16.52)" gradientUnits="userSpaceOnUse"><stop offset="0" stop-color="#a7a4a4"/><stop offset="1" stop-color="#dedfdf"/></linearGradient><linearGradient id="_臾댁젣_洹몃씪?붿뼵??166" x1="63.38" y1="26.24" x2="77.69" y2="15.62" gradientTransform="translate(1.88 -6.7) rotate(6.69)" gradientUnits="userSpaceOnUse"><stop offset="0" stop-color="#bbd6f0"/><stop offset="1" stop-color="#87b3de"/></linearGradient><linearGradient id="_臾댁젣_洹몃씪?붿뼵??33" x1="67.99" y1="8.51" x2="98.61" y2="-22.29" gradientTransform="translate(-45.24 54.05) rotate(-6.76)" gradientUnits="userSpaceOnUse"><stop offset=".21" stop-color="#f3fafe" stop-opacity="0"/><stop offset=".23" stop-color="#ecf5fc" stop-opacity=".06"/><stop offset=".35" stop-color="#cfe3f4" stop-opacity=".3"/><stop offset=".46" stop-color="#b7d4ed" stop-opacity=".52"/><stop offset=".57" stop-color="#a3c7e8" stop-opacity=".69"/><stop offset=".69" stop-color="#93bde4" stop-opacity=".83"/><stop offset=".8" stop-color="#88b6e1" stop-opacity=".92"/><stop offset=".9" stop-color="#82b2df" stop-opacity=".98"/><stop offset="1" stop-color="#80b1df"/></linearGradient><linearGradient id="_臾댁젣_洹몃씪?붿뼵??64-2" x1="142.74" y1="-2.64" x2="142.79" y2="-2.61" gradientTransform="translate(-63.62 80.73) rotate(-29.94) scale(1 1.26)" xlink:href="#_臾댁젣_洹몃씪?붿뼵??64"/></defs><g id="_?덉씠??1-2"><circle cx="38.68" cy="37.42" r="1.52" fill="#94bfe2"/><circle cx="47.01" cy="66.8" r="1.52" fill="#c0d8ed"/><circle cx="17.42" cy="69.14" r="1.52" fill="#a6c9e6"/><circle cx="42.77" cy="71.89" r="1.52" fill="#91bee1"/><circle cx="29.52" cy="77.08" r="1.14" fill="#a6c9e6"/><circle cx="22.42" cy="73.48" r="1.23" fill="#c0d8ed"/><circle cx="7.44" cy="70.71" r="1.23" fill="#a6c9e6"/><circle cx="28.95" cy="71.47" r="1.52" fill="#a6c9e6"/><path d="M6.72,48.13l-1.13-.65c.02.15.03.3.04.45l.71.41-.65.38c0,.14.02.28.03.42l1-.58,2.08,1.2-2.08,1.2-.91-.53c.01.15.03.3.04.46l.5.29-.43.25c.02.13.03.27.05.4l.76-.44,2.08,1.2-2.08,1.2-.29-.17c.05.15.09.31.16.46.02.06.05.12.07.18l.06-.03,2.08,1.2-1.32.76c.05.11.1.23.15.34l1.55-.89,2.08,1.2-1.56.9.37.22,1.56-.9,2.08,1.2-1.56.9.37.22,1.56-.9,2.08,1.2-1.56.9.37.22,1.56-.9,2.08,1.2-1.45.84c.23.01.46.03.69.04l1.14-.66,1.37.79c.28.02.56.03.84.05l-1.83-1.06,2.08-1.2,2.08,1.2-1.91,1.1c.21.02.42.05.64.06l1.65-.95,2.08,1.2-.22.13c.54.08,1.07.15,1.59.23l-.62-.36,2.08-1.2,2.08,1.2-1.18.68c.2.03.41.06.61.08l.95-.55,1.38.8c.29.03.57.04.85.06l-1.87-1.08,2.08-1.2,3.15,1.82c.13-.06.26-.11.39-.18.01,0,.02,0,.03-.01l-3.2-1.85,2.08-1.2,3.76,2.17c.13-.06.27-.13.4-.2l-3.79-2.19,2.08-1.2,3.83,2.21.37-.22-3.83-2.21,2.08-1.2,3.83,2.21.37-.22-3.83-2.21,2.08-1.2,3.83,2.21.37-.22-3.83-2.21,2.08-1.2,2.62,1.52c.06-.11.13-.21.2-.32l-2.45-1.41,2.08-1.2,1.5.86c.07-.1.14-.21.22-.31l-1.34-.77,2.08-1.2.43.25c.07-.1.14-.21.21-.31l-.27-.16.6-.35c.14-.21.27-.43.4-.64,0,0,0-.02,0-.02l-1.38.8-2.08-1.2,2.08-1.2,1.44.83c.01-.14.03-.27.04-.41l-1.11-.64,1.3-.75c.01-.08.03-.16.04-.24l-.19-.11-1.52.88-2.08-1.2,1.52-.88-.37-.22-1.52.88-2.08-1.2,1.52-.88-.37-.22-1.52.88-2.08-1.2,1.52-.88-.37-.22-1.52.88-2.08-1.2,1.52-.88-.37-.22-1.52.88-2.08-1.2,1.52-.88-.37-.22-1.52.88-2.08-1.2,1.52-.88-.37-.22-1.52.88-2.08-1.2,1.52-.88-.37-.22-1.52.88-2.08-1.2,1.52-.88-.37-.22-1.52.88-2.08-1.2,1.52-.88-.37-.22-1.52.88-1.43-.82-.37.22,1.43.82-2.08,1.2-1.43-.82-.37.22,1.43.82-2.08,1.2-1.43-.82-.37.22,1.43.82-2.08,1.2-1.43-.82-.37.22,1.43.82-2.08,1.2-1.43-.82-.37.22,1.43.82-2.08,1.2-1.43-.82-.37.22,1.43.82-2.08,1.2-1.43-.82-.37.22,1.43.82-2.08,1.2-1.43-.82-.37.22,1.43.82-2.08,1.2-1.43-.82-.37.22,1.43.82-2.08,1.2ZM11.64,45.72l2.08,1.2-2.08,1.2-2.08-1.2,2.08-1.2ZM28.85,49.55l-2.08-1.2,2.08-1.2,2.08,1.2-2.08,1.2ZM31.31,48.56l2.08,1.2-2.08,1.2-2.08-1.2,2.08-1.2ZM28.48,49.76l-2.08,1.2-2.08-1.2,2.08-1.2,2.08,1.2ZM23.93,49.55l-2.08-1.2,2.08-1.2,2.08,1.2-2.08,1.2ZM24.31,46.93l2.08-1.2,2.08,1.2-2.08,1.2-2.08-1.2ZM26.77,45.51l2.08-1.2,2.08,1.2-2.08,1.2-2.08-1.2ZM31.31,45.72l2.08,1.2-2.08,1.2-2.08-1.2,2.08-1.2ZM33.77,47.14l2.08,1.2-2.08,1.2-2.08-1.2,2.08-1.2ZM36.23,48.56l2.08,1.2-2.08,1.2-2.08-1.2,2.08-1.2ZM35.85,51.18l-2.08,1.2-2.08-1.2,2.08-1.2,2.08,1.2ZM33.39,52.6l-2.08,1.2-2.08-1.2,2.08-1.2,2.08,1.2ZM28.85,52.39l-2.08-1.2,2.08-1.2,2.08,1.2-2.08,1.2ZM28.48,52.6l-2.08,1.2-2.08-1.2,2.08-1.2,2.08,1.2ZM23.93,52.39l-2.08-1.2,2.08-1.2,2.08,1.2-2.08,1.2ZM21.47,50.97l-2.08-1.2,2.08-1.2,2.08,1.2-2.08,1.2ZM21.1,51.18l-2.08,1.2-2.08-1.2,2.08-1.2,2.08,1.2ZM16.56,50.97l-2.08-1.2,2.08-1.2,2.08,1.2-2.08,1.2ZM16.93,48.34l2.08-1.2,2.08,1.2-2.08,1.2-2.08-1.2ZM19.39,46.93l2.08-1.2,2.08,1.2-2.08,1.2-2.08-1.2ZM21.85,45.51l2.08-1.2,2.08,1.2-2.08,1.2-2.08-1.2ZM24.31,44.09l2.08-1.2,2.08,1.2-2.08,1.2-2.08-1.2ZM26.77,42.67l2.08-1.2,2.08,1.2-2.08,1.2-2.08-1.2ZM31.31,42.88l2.08,1.2-2.08,1.2-2.08-1.2,2.08-1.2ZM33.77,44.3l2.08,1.2-2.08,1.2-2.08-1.2,2.08-1.2ZM36.23,45.72l2.08,1.2-2.08,1.2-2.08-1.2,2.08-1.2ZM38.68,47.14l2.08,1.2-2.08,1.2-2.08-1.2,2.08-1.2ZM41.14,48.56l2.08,1.2-2.08,1.2-2.08-1.2,2.08-1.2ZM40.77,51.18l-2.08,1.2-2.08-1.2,2.08-1.2,2.08,1.2ZM38.31,52.6l-2.08,1.2-2.08-1.2,2.08-1.2,2.08,1.2ZM35.85,54.02l-2.08,1.2-2.08-1.2,2.08-1.2,2.08,1.2ZM33.39,55.44l-2.08,1.2-2.08-1.2,2.08-1.2,2.08,1.2ZM28.85,55.23l-2.08-1.2,2.08-1.2,2.08,1.2-2.08,1.2ZM28.48,55.44l-2.08,1.2-2.08-1.2,2.08-1.2,2.08,1.2ZM23.93,55.23l-2.08-1.2,2.08-1.2,2.08,1.2-2.08,1.2ZM21.47,53.81l-2.08-1.2,2.08-1.2,2.08,1.2-2.08,1.2ZM21.1,54.02l-2.08,1.2-2.08-1.2,2.08-1.2,2.08,1.2ZM16.56,53.81l-2.08-1.2,2.08-1.2,2.08,1.2-2.08,1.2ZM14.1,52.39l-2.08-1.2,2.08-1.2,2.08,1.2-2.08,1.2ZM14.1,49.55l-2.08-1.2,2.08-1.2,2.08,1.2-2.08,1.2ZM14.47,46.93l2.08-1.2,2.08,1.2-2.08,1.2-2.08-1.2ZM16.93,45.51l2.08-1.2,2.08,1.2-2.08,1.2-2.08-1.2ZM19.39,44.09l2.08-1.2,2.08,1.2-2.08,1.2-2.08-1.2ZM21.85,42.67l2.08-1.2,2.08,1.2-2.08,1.2-2.08-1.2ZM24.31,41.25l2.08-1.2,2.08,1.2-2.08,1.2-2.08-1.2ZM26.77,39.83l2.08-1.2,2.08,1.2-2.08,1.2-2.08-1.2ZM31.31,40.04l2.08,1.2-2.08,1.2-2.08-1.2,2.08-1.2ZM33.77,41.46l2.08,1.2-2.08,1.2-2.08-1.2,2.08-1.2ZM36.23,42.88l2.08,1.2-2.08,1.2-2.08-1.2,2.08-1.2ZM38.68,44.3l2.08,1.2-2.08,1.2-2.08-1.2,2.08-1.2ZM41.14,45.72l2.08,1.2-2.08,1.2-2.08-1.2,2.08-1.2ZM43.6,47.14l2.08,1.2-2.08,1.2-2.08-1.2,2.08-1.2ZM46.06,48.56l2.08,1.2-2.08,1.2-2.08-1.2,2.08-1.2ZM45.69,51.18l-2.08,1.2-2.08-1.2,2.08-1.2,2.08,1.2ZM43.23,52.6l-2.08,1.2-2.08-1.2,2.08-1.2,2.08,1.2ZM40.77,54.02l-2.08,1.2-2.08-1.2,2.08-1.2,2.08,1.2ZM38.31,55.44l-2.08,1.2-2.08-1.2,2.08-1.2,2.08,1.2ZM35.85,56.86l-2.08,1.2-2.08-1.2,2.08-1.2,2.08,1.2ZM33.39,58.28l-2.08,1.2-2.08-1.2,2.08-1.2,2.08,1.2ZM28.85,58.07l-2.08-1.2,2.08-1.2,2.08,1.2-2.08,1.2ZM28.48,58.28l-2.08,1.2-2.08-1.2,2.08-1.2,2.08,1.2ZM23.93,58.07l-2.08-1.2,2.08-1.2,2.08,1.2-2.08,1.2ZM21.47,56.65l-2.08-1.2,2.08-1.2,2.08,1.2-2.08,1.2ZM21.1,56.86l-2.08,1.2-2.08-1.2,2.08-1.2,2.08,1.2ZM16.56,56.65l-2.08-1.2,2.08-1.2,2.08,1.2-2.08,1.2ZM14.1,55.23l-2.08-1.2,2.08-1.2,2.08,1.2-2.08,1.2ZM11.64,53.81l-2.08-1.2,2.08-1.2,2.08,1.2-2.08,1.2ZM11.64,50.97l-2.08-1.2,2.08-1.2,2.08,1.2-2.08,1.2ZM14.1,44.3l2.08,1.2-2.08,1.2-2.08-1.2,2.08-1.2ZM16.56,42.88l2.08,1.2-2.08,1.2-2.08-1.2,2.08-1.2ZM19.02,41.46l2.08,1.2-2.08,1.2-2.08-1.2,2.08-1.2ZM21.47,40.04l2.08,1.2-2.08,1.2-2.08-1.2,2.08-1.2ZM23.93,38.62l2.08,1.2-2.08,1.2-2.08-1.2,2.08-1.2ZM26.39,37.2l2.08,1.2-2.08,1.2-2.08-1.2,2.08-1.2ZM30.93,36.99l-2.08,1.2-2.08-1.2,2.08-1.2,2.08,1.2ZM33.39,38.41l-2.08,1.2-2.08-1.2,2.08-1.2,2.08,1.2ZM35.85,39.83l-2.08,1.2-2.08-1.2,2.08-1.2,2.08,1.2ZM38.31,41.25l-2.08,1.2-2.08-1.2,2.08-1.2,2.08,1.2ZM40.77,42.67l-2.08,1.2-2.08-1.2,2.08-1.2,2.08,1.2ZM43.23,44.09l-2.08,1.2-2.08-1.2,2.08-1.2,2.08,1.2ZM45.69,45.51l-2.08,1.2-2.08-1.2,2.08-1.2,2.08,1.2ZM48.15,46.93l-2.08,1.2-2.08-1.2,2.08-1.2,2.08,1.2ZM48.52,49.55l-2.08-1.2,2.08-1.2,2.08,1.2-2.08,1.2ZM48.52,52.39l-2.08-1.2,2.08-1.2,2.08,1.2-2.08,1.2ZM46.06,53.81l-2.08-1.2,2.08-1.2,2.08,1.2-2.08,1.2ZM43.6,55.23l-2.08-1.2,2.08-1.2,2.08,1.2-2.08,1.2ZM41.14,56.65l-2.08-1.2,2.08-1.2,2.08,1.2-2.08,1.2ZM38.68,58.07l-2.08-1.2,2.08-1.2,2.08,1.2-2.08,1.2ZM36.23,59.49l-2.08-1.2,2.08-1.2,2.08,1.2-2.08,1.2ZM33.77,60.9l-2.08-1.2,2.08-1.2,2.08,1.2-2.08,1.2ZM29.22,61.12l2.08-1.2,2.08,1.2-2.08,1.2-2.08-1.2ZM28.85,60.9l-2.08-1.2,2.08-1.2,2.08,1.2-2.08,1.2ZM24.31,61.12l2.08-1.2,2.08,1.2-2.08,1.2-2.08-1.2ZM21.85,59.7l2.08-1.2,2.08,1.2-2.08,1.2-2.08-1.2ZM21.47,59.49l-2.08-1.2,2.08-1.2,2.08,1.2-2.08,1.2ZM16.93,59.7l2.08-1.2,2.08,1.2-2.08,1.2-2.08-1.2ZM14.47,58.28l2.08-1.2,2.08,1.2-2.08,1.2-2.08-1.2ZM12.01,56.86l2.08-1.2,2.08,1.2-2.08,1.2-2.08-1.2ZM9.55,55.44l2.08-1.2,2.08,1.2-2.08,1.2-2.08-1.2ZM9.18,52.82l2.08,1.2-2.08,1.2-2.08-1.2,2.08-1.2ZM9.18,49.98l2.08,1.2-2.08,1.2-2.08-1.2,2.08-1.2ZM7.1,48.34l2.08-1.2,2.08,1.2-2.08,1.2-2.08-1.2Z" fill="#b5b5b6"/><path d="M4.47,44.72v9.09c0,3.68,2.43,7.37,7.3,10.18,9.74,5.62,25.53,5.62,35.27,0,4.87-2.81,7.3-6.5,7.3-10.18v-8.96s-3.61-7.18-7.3-9.32c-9.74-5.62-25.53-5.54-35.27.08-3.21,1.86-7.3,9.11-7.3,9.11ZM13.3,44.5c8.9-5.14,23.33-5.14,32.23,0,2.98,1.72,4.96,3.79,5.94,5.99.57,1.27-1.74,1.93-5.94,4.36-8.9,5.14-23.33,5.14-32.23,0-4.45-2.57-6.36-3.57-5.74-4.79,1.04-2.03,2.96-3.95,5.74-5.56Z" fill="url(#_臾댁젣_洹몃씪?붿뼵??54)"/><path d="M11.78,55.17c9.74,5.62,25.53,5.62,35.27,0,9.74-5.62,9.74-14.74,0-20.36-9.74-5.62-25.53-5.62-35.27,0-9.74,5.62-9.74,14.74,0,20.36ZM13.3,35.69c8.9-5.14,23.33-5.14,32.23,0,4.21,2.43,6.42,5.57,6.66,8.75.26,3.55-1.96,7.15-6.66,9.86-8.9,5.14-23.33,5.14-32.23,0-8.9-5.14-8.9-13.47,0-18.61Z" fill="#efefef" stroke="#b9baba" stroke-miterlimit="10" stroke-width=".25"/><path d="M59.89,12.83c.02.08.04.15.04.15,0,0-.02-.07-.04-.15s-.04-.15-.04-.15c0,0,.02.07.04.15Z" fill="url(#_臾댁젣_洹몃씪?붿뼵??64)"/><path d="M92.15,3.16l-11.17,6.61c-.73.43-1.68.17-2.11-.59l-.11-.2c-.43-.76-.17-1.73.56-2.16L90.49.21c.73-.43,1.68-.17,2.11.59l.11.2c.43.76.17,1.73-.56,2.16Z" fill="#87b7d6"/><path d="M48.98,24.95c5.32,7.64,14.48,10.61,23.64,5.22s11.21-15.06,7.43-23.61l-31.08,18.38Z" fill="url(#_臾댁젣_洹몃씪?붿뼵??166)"/><ellipse cx="64.44" cy="15.61" rx="18.05" ry="4.77" transform="translate(1.09 35.2) rotate(-30.8)" fill="#e1ecf5" stroke="#73a3d7" stroke-miterlimit="10" stroke-width=".72"/><path d="M17.4,43.12C40.97,10.95,63.13,21.79,63.13,21.79c-8.06,4.81-13.54,3.63-13.54,3.63-4.92,7.87-5.41,14.7-5.88,21.96" fill="url(#_臾댁젣_洹몃씪?붿뼵??33)"/><path d="M62.55,25.47c.13-.08.44-.25.92-.51.21-.15.39-.26.55-.36.23-.08.39-.05.47.09.07.2.03.35-.11.43l-.83.49.1.24c.47.84,1.3,1.37,2.49,1.6.03.05.06.09.1.11.05.19.01.33-.1.4l-.05.03c-.49.07-1.13-.15-1.91-.68l.03.92c-.04.65-.15,1.03-.34,1.14l-.07.04c-.16.06-.27.03-.35-.1l-.03-.05c-.05-.09,0-.34.17-.74.09-.8-.12-1.66-.63-2.57l-.44.26c-.09.05-.2.13-.33.23-.19.05-.32,0-.4-.13-.11-.2.05-.43.49-.69l.27-.16ZM64.85,23.34c.11-.07.24-.04.37.08.05.09.1.19.13.29.26.42.47.78.65,1.09l.18.33.68-.4c.15,0,.25.04.31.15.11.2.03.38-.25.55l-.44.26.81,1.43c.12.22.29.5.5.84.05.19.02.33-.1.4l-.05.03c-.18.06-.31.03-.39-.11-.14-.26-.32-.54-.52-.86-.11-.19-.31-.57-.61-1.14-.55-.94-1.02-1.75-1.41-2.45-.07-.23-.03-.38.12-.47Z" fill="#0f5fad"/><path d="M68.05,21.87c.44-.26.92-.23,1.45.09.19.17.32.33.42.46.31.54.24,1.13-.21,1.77-.1.08-.19.14-.25.18l-.24.14c-.49.29-1.02.17-1.59-.35l-.17-.25c-.35-.63-.27-1.24.26-1.84l.34-.2ZM67.98,23.6c.21.38.54.49.97.34.45-.27.61-.64.47-1.12l-.05-.08c-.19-.33-.53-.43-1.02-.31-.36.21-.53.51-.5.89l.12.28ZM69.29,25.15c.2-.12.5.2.93.96l.16.28,1.29-.76c.29-.17.69-.42,1.18-.73.19-.05.32-.01.39.11l.03.05c.06.11.04.24-.08.38-.69.43-1.22.76-1.59.98l-1.12.66c-.21.12-.42.01-.61-.34-.28-.5-.52-.9-.7-1.19-.03-.18.01-.31.14-.38ZM70.18,20.26c.2-.03.33.01.4.13.03.05.03.08.02.09.17.27.3.47.38.61l.51.9c.14.24.33.56.58.97.04.2-.01.34-.15.42-.13.07-.27.01-.43-.18l-.21-.38-.85.5-.13.11c-.19.05-.32,0-.4-.13-.11-.2-.02-.39.27-.56l.8-.48-.3-.53-.93.55c-.2.1-.35.07-.43-.08l-.03-.05c-.07-.13-.03-.27.13-.41l.93-.55-.25-.45c-.12-.22-.09-.38.11-.5Z" fill="#0f5fad"/><path d="M73.27,18.71l.05-.03c.23-.13.43-.04.61.28.45.36.89.51,1.33.45.13.02.42-.04.87-.18.13.04.21.09.25.15l.03.05c.06.19.02.32-.1.4-.51.2-1.07.26-1.68.19l-.71-.28c0,.53-.18,1.07-.52,1.61,0,.06-.13.22-.39.46-.2.08-.33.05-.41-.09l-.03-.05c-.08-.15.04-.39.37-.72.41-.81.48-1.46.2-1.96,0-.14.05-.23.13-.28ZM72.9,22.33c.42-.23.75-.41.99-.55l1.83-1.08c.2-.12.45-.28.74-.47.34-.2.57-.19.7.02.05.09.02.22-.1.4l-.16.06c-.62.39-1.1.68-1.45.89l-.07.04.17.24.74,1.31c.1.18.05.34-.16.46-.17.04-.31-.03-.4-.2l-.85-1.51h-.02c-.98.57-1.53.88-1.65.95-.13.08-.26.03-.4-.13-.06-.11-.03-.26.11-.43Z" fill="#0f5fad"/><path d="M58.41,6.61c.05.1.1.17.1.17,0,0-.04-.08-.1-.17s-.1-.17-.1-.17c0,0,.04.08.1.17Z" fill="url(#_臾댁젣_洹몃씪?붿뼵??64-2)"/><path d="M70.58,17.34c-1.19.82-2.46,1.64-3.8,2.43-7.63,4.53-14.8,6.82-17.2,5.65" fill="none" stroke="#82abdb" stroke-miterlimit="10" stroke-width=".72"/><circle cx="44.69" cy="25.46" r="1.13" fill="#cee1f2"/><circle cx="37.21" cy="29.07" r="1.13" fill="#cee1f2"/><circle cx="40.64" cy="36.44" r="1.13" fill="#cee1f2"/></g></svg>
